<?xml version="1.0" encoding="UTF-8"?>
<svg xmlns="http://www.w3.org/2000/svg" width="91" height="104" viewBox="0 0 91 104" fill="none">
  <path d="M87.9904 14.5816L46.3361 2.07836C45.953 1.97388 45.535 1.97388 45.1519 2.07836L3.49761 14.5816C2.62691 14.8603 2 15.6613 2 16.5668V62.4005C2 80.8246 30.1062 97.1937 45.1171 101.896C45.3261 101.965 45.535 102 45.744 102C45.953 102 46.1619 102 46.3709 101.896C61.4166 97.2286 89.4863 80.8246 89.4863 62.4005V16.5668C89.4863 15.6613 88.896 14.8254 87.9904 14.5816Z" stroke="#B2872D" stroke-width="3" stroke-miterlimit="10"></path>
  <path d="M63.719 40.7752L42.2997 62.5427C41.7773 63.0651 41.0808 63.3438 40.419 63.3438C39.7573 63.3438 39.0608 63.0651 38.5383 62.5427L27.8461 51.6764C26.8013 50.6315 26.8013 48.8901 27.8461 47.8453C28.891 46.8004 30.5975 46.8004 31.6424 47.8453L40.4539 56.7961L59.9924 36.9789C61.0372 35.9341 62.7438 35.9341 63.7887 36.9789C64.8335 38.0238 64.8335 39.7652 63.7887 40.81L63.719 40.7752Z" fill="#B2872D"></path>
</svg>
