<?xml version="1.0" encoding="UTF-8"?>
<svg xmlns="http://www.w3.org/2000/svg" width="96" height="100" viewBox="0 0 96 100" fill="none">
  <path d="M79.6059 65.0878C78.446 63.928 76.5516 63.928 75.3917 65.0878C74.2318 66.2477 74.2318 68.1422 75.3917 69.302L85.2119 79.1223H26.8317C15.3103 79.1223 5.95401 69.766 5.95401 58.2446C5.95401 56.6208 4.60084 55.2676 2.97702 55.2676C1.3532 55.2676 0 56.6208 0 58.2446C0 73.0136 12.024 85.0763 26.8317 85.0763H85.2119L75.3917 94.8965C74.2318 96.0564 74.2318 97.9509 75.3917 99.1107C75.9716 99.6907 76.7062 100 77.4795 100C78.2527 100 78.9873 99.6907 79.6059 99.1494L94.4909 84.2644C95.6508 83.1045 95.6508 81.21 94.4909 80.0502L79.6059 65.1265V65.0878Z" fill="#B2872D"></path>
  <path d="M15.7475 34.8928C16.3274 35.4728 17.1007 35.7434 17.8739 35.7434C18.6472 35.7434 19.3818 35.4341 20.0004 34.8928C21.1603 33.7329 21.1603 31.8385 20.0004 30.6786L10.1801 20.8584H68.5604C80.0818 20.8584 89.4381 30.2147 89.4381 41.7361C89.4381 43.3599 90.7912 44.7131 92.4151 44.7131C94.0389 44.7131 95.3921 43.3599 95.3921 41.7361C95.3921 26.967 83.3681 14.9043 68.5604 14.9043H10.1801L20.0004 5.08411C21.1603 3.92423 21.1603 2.02978 20.0004 0.869904C18.8405 -0.289968 16.946 -0.289968 15.7862 0.869904L0.901154 15.7549C-0.258718 16.9148 -0.258718 18.8093 0.901154 19.9691L15.7862 34.8542L15.7475 34.8928Z" fill="#B2872D"></path>
</svg>
