<?xml version="1.0" encoding="UTF-8"?>
<svg xmlns="http://www.w3.org/2000/svg" width="79" height="100" viewBox="0 0 79 100" fill="none">
  <path d="M66.4664 65.3598V65.2593C66.7679 64.2542 67.2034 63.3162 67.7394 62.4117C68.4429 61.6747 69.247 61.0716 70.1515 60.5691C71.9606 59.6646 73.4346 58.224 74.4396 56.482C75.1432 54.6059 75.3107 52.5623 74.8752 50.5858C74.6742 49.5472 74.6741 48.4752 74.8081 47.4366C75.1097 46.4651 75.5787 45.5606 76.1817 44.7566C77.4213 43.115 78.1583 41.1719 78.3258 39.1284C78.1583 37.0848 77.4213 35.1417 76.1817 33.5002C75.5787 32.6626 75.1432 31.7581 74.8081 30.8201C74.6741 29.7815 74.7077 28.7095 74.8752 27.671C75.2772 25.6944 75.1432 23.6843 74.4396 21.7747C73.4346 20.0327 71.9606 18.6256 70.1515 17.6876C69.247 17.1851 68.4429 16.5821 67.7394 15.845C67.1699 14.974 66.7679 14.0025 66.4999 12.9974C66.0309 11.0209 65.0258 9.2453 63.5853 7.83825C61.9437 6.69921 60.0006 6.09619 57.9906 6.06269C56.9855 6.02919 55.9805 5.82818 55.009 5.45967C54.1714 4.92365 53.4009 4.25362 52.7644 3.4831C51.4913 1.90854 49.7828 0.702503 47.8732 0.0994813C45.9301 -0.168528 43.9201 0.0994757 42.1445 0.970506C41.2065 1.37252 40.1679 1.64053 39.1629 1.74103C38.1244 1.64053 37.1193 1.37252 36.1813 0.970506C34.4057 0.132977 32.3957 -0.168528 30.4526 0.0994813C28.5095 0.736004 26.801 1.90854 25.5614 3.4831C24.9249 4.25362 24.1544 4.92365 23.3168 5.45967C22.3788 5.82818 21.3738 6.02919 20.3352 6.06269C18.3251 6.06269 16.3821 6.69921 14.7405 7.83825C13.3 9.2453 12.2615 11.0209 11.8259 12.9974C11.5579 14.0025 11.1559 14.9405 10.5864 15.845C9.88286 16.5821 9.07883 17.1851 8.1743 17.6876C6.36523 18.5921 4.89119 20.0327 3.88615 21.7747C3.18262 23.6508 3.01513 25.6944 3.45064 27.671C3.65165 28.7095 3.65164 29.7815 3.51763 30.8201C3.21612 31.7916 2.7471 32.6961 2.14407 33.5002C0.90453 35.1417 0.167506 37.0848 0 39.1284C0.167506 41.1719 0.90453 43.115 2.14407 44.7566C2.7471 45.5941 3.18262 46.4986 3.51763 47.4366C3.65164 48.4752 3.61815 49.5472 3.45064 50.5858C3.04863 52.5623 3.18262 54.5724 3.88615 56.482C4.89119 58.224 6.36523 59.6311 8.1743 60.5691C9.07883 61.0716 9.88286 61.6747 10.5864 62.4117C11.1559 63.2827 11.5579 64.2542 11.8259 65.2593V65.3598L0.603022 84.7905C-0.60302 86.8675 0.100509 89.5476 2.17758 90.7202C3.04861 91.2227 4.02014 91.3902 5.02518 91.2562L12.5965 90.1172L15.3771 97.2529C15.9801 98.8275 17.4206 99.8995 19.0957 100C19.1962 100 19.3302 100 19.4307 100C20.9718 100 22.4123 99.1625 23.1828 97.8224L34.8077 77.6882C35.2767 77.5542 35.7123 77.3867 36.1478 77.2192C37.0858 76.8172 38.1243 76.5492 39.1294 76.4487C40.1679 76.5492 41.173 76.8172 42.111 77.2192C42.5465 77.3867 43.0155 77.5207 43.451 77.6882L55.076 97.8224C55.8465 99.1625 57.287 100 58.8281 100C58.9286 100 59.0626 100 59.1631 100C60.8382 99.866 62.2787 98.794 62.8817 97.2529L65.6623 90.1172L73.2336 91.2562C75.6122 91.6247 77.8233 89.9832 78.1918 87.6046C78.3258 86.633 78.1583 85.628 77.6557 84.757L66.3993 65.2928L66.4664 65.3598ZM19.3972 95.7119L15.9801 86.9345C15.6116 85.9965 14.64 85.427 13.635 85.561L4.32166 86.9681L14.2045 69.8489C14.372 70.0165 14.506 70.184 14.6735 70.3515C16.3151 71.4905 18.2582 72.0935 20.2682 72.127C21.2733 72.1605 22.2783 72.3615 23.2498 72.7301C24.0874 73.2661 24.8579 73.9361 25.4944 74.7066C26.6334 76.0467 28.074 77.1187 29.6821 77.8222L19.3972 95.6448V95.7119ZM43.6186 73.1991C42.2115 72.596 40.6704 72.2275 39.1294 72.1605C37.5883 72.261 36.0808 72.596 34.6402 73.1991C33.6352 73.7016 32.4962 73.9361 31.3906 73.9361C30.3186 73.4336 29.3805 72.6965 28.6435 71.7585C27.672 70.6195 26.4994 69.6479 25.1594 68.9109C23.7523 68.3079 22.2783 67.9729 20.7372 67.8724C19.5982 67.8724 18.4592 67.5709 17.4206 67.0348C16.6501 66.1303 16.1141 65.0248 15.8796 63.8522C15.4776 62.3782 14.8075 60.9711 13.9365 59.7316C12.9315 58.5925 11.7589 57.621 10.4189 56.884C9.34683 56.348 8.44232 55.5774 7.73879 54.6394C7.43728 53.5004 7.43727 52.2608 7.67177 51.1218C7.93978 49.5807 7.93978 48.0397 7.67177 46.4986C7.26976 45.0581 6.59974 43.6845 5.76221 42.445C4.99168 41.4734 4.48918 40.3344 4.28817 39.1284C4.48918 37.9223 5.02518 36.7833 5.76221 35.8117C6.63324 34.5722 7.26976 33.1986 7.67177 31.7581C7.93978 30.217 7.90628 28.676 7.67177 27.1349C7.40376 25.9624 7.43728 24.7563 7.73879 23.6173C8.44232 22.6458 9.34683 21.8752 10.4189 21.3727C11.7589 20.6357 12.9315 19.6642 13.9365 18.5251C14.8075 17.2856 15.4776 15.8785 15.8796 14.4045C16.1476 13.2319 16.6836 12.1599 17.4206 11.2219C18.4257 10.6859 19.5647 10.3843 20.7372 10.3843C22.2448 10.3173 23.7523 9.94882 25.1594 9.3458C26.4659 8.60878 27.6385 7.63725 28.6435 6.49821C29.3805 5.56017 30.3186 4.82314 31.3906 4.32063C32.5297 4.32063 33.6352 4.55514 34.6402 5.05766C36.0473 5.66068 37.5883 6.02918 39.1294 6.09618C40.6704 5.99568 42.178 5.66068 43.6186 5.05766C44.6236 4.55514 45.7626 4.32063 46.8682 4.32063C47.9402 4.82314 48.8782 5.56017 49.6153 6.49821C50.5868 7.63725 51.7593 8.60878 53.0994 9.3458C54.5064 9.94882 55.9805 10.2838 57.5216 10.3843C58.6606 10.3843 59.7996 10.6859 60.8382 11.2219C61.6087 12.1264 62.1447 13.2319 62.3792 14.4045C62.7812 15.8785 63.4513 17.2856 64.3223 18.5251C65.3273 19.6642 66.4999 20.6357 67.8399 21.3727C68.9119 21.9087 69.8165 22.6793 70.52 23.6173C70.8215 24.7563 70.8215 25.9959 70.587 27.1349C70.319 28.676 70.319 30.217 70.587 31.7581C70.989 33.1986 71.659 34.5722 72.4966 35.8117C73.2671 36.7833 73.7696 37.9223 73.9706 39.1284C73.7696 40.3344 73.2336 41.4734 72.4966 42.445C71.6255 43.6845 70.989 45.0581 70.587 46.4986C70.319 48.0397 70.3525 49.5807 70.587 51.1218C70.855 52.2943 70.8215 53.5004 70.52 54.6394C69.8165 55.6109 68.9119 56.3815 67.8399 56.884C66.4999 57.621 65.3273 58.5925 64.3223 59.7316C63.4513 60.9711 62.7812 62.3782 62.3792 63.8522C62.1112 65.0248 61.5752 66.0968 60.8382 67.0348C59.8331 67.5709 58.6941 67.8724 57.5216 67.8724C56.014 67.9394 54.5064 68.3079 53.0994 68.9109C51.7929 69.6479 50.6203 70.6195 49.6153 71.7585C48.8782 72.6965 47.9402 73.4336 46.8682 73.9361C45.7291 73.9361 44.6236 73.7016 43.6186 73.1991ZM64.6573 85.5945C63.6523 85.4605 62.6807 85.9965 62.3122 86.9681L58.8951 95.7454L48.6102 77.9227C50.2183 77.2192 51.6588 76.1472 52.7979 74.8071C53.4344 74.0366 54.2049 73.3666 55.0424 72.8306C55.9805 72.462 56.9855 72.261 58.024 72.2275C60.0341 72.2275 61.9772 71.591 63.6188 70.452C63.7863 70.2845 63.9538 70.117 64.1213 69.9494L74.0041 87.0686L64.7243 85.6615L64.6573 85.5945ZM65.2268 39.1619C65.2268 24.7564 53.5349 13.0644 39.1294 13.0644C24.7239 13.0644 13.032 24.7564 13.032 39.1619C13.032 53.5674 24.7239 65.2593 39.1294 65.2593C53.5349 65.2593 65.2268 53.5674 65.2268 39.1619ZM39.1294 60.9041C27.1025 60.9041 17.3536 51.1553 17.3536 39.1284C17.3536 27.1014 27.1025 17.3526 39.1294 17.3526C51.1563 17.3526 60.9052 27.1014 60.9052 39.1284C60.9052 51.1553 51.1563 60.8706 39.1294 60.9041ZM49.0457 30.8201C50.0508 31.4901 50.3188 32.8301 49.6488 33.8352L40.9385 46.9006C40.5699 47.4366 40.0004 47.8052 39.3304 47.8722C39.2634 47.8722 39.1964 47.8722 39.1294 47.8722C38.5599 47.8722 37.9903 47.6377 37.5883 47.2356L31.0556 40.7029C30.2181 39.8319 30.2516 38.4583 31.1226 37.6208C31.9601 36.8168 33.3002 36.8168 34.1377 37.6208L38.7944 42.2775L46.0306 31.4231C46.7007 30.418 48.0407 30.15 49.0457 30.8201Z" fill="#B2872D"></path>
</svg>
