<?xml version="1.0" encoding="UTF-8"?>
<svg xmlns="http://www.w3.org/2000/svg" width="164" height="100" viewBox="0 0 164 100" fill="none">
  <path d="M9.31345 64.7161C13.586 61.1326 38.6013 36.5997 73.161 2.55691C74.2636 1.76441 77.089 -0.13069 80.9136 0.00713523C83.0844 0.0760478 84.7728 0.765179 85.5308 1.07529C87.5293 1.90224 88.9075 3.03929 89.7345 3.83179L154.58 67.3348C154.959 68.0583 157.715 73.3646 155.269 78.5331C154.063 81.1173 152.03 82.5989 151.686 82.8401C149.515 84.3906 147.344 84.8041 146.31 84.9075H99.2444L81.0859 66.5423H115.129C117.92 66.4044 120.022 64.5093 120.194 62.4075C120.332 60.857 119.264 59.5476 118.747 58.9274C115.68 55.4818 102.552 42.4228 84.5316 24.919C84.0147 24.5056 82.9121 23.7131 81.3616 23.5063C81.1204 23.5063 80.5002 23.403 79.7077 23.5063C79.2253 23.5752 77.7781 23.8854 75.125 26.1595C74.2636 26.8831 42.1158 58.9619 42.1158 58.9619C41.9091 59.2031 40.3586 60.9259 40.841 62.9243C41.3578 65.164 43.9765 66.0254 44.8035 66.3011C45.8716 66.6456 46.8364 66.6801 47.4566 66.6456L79.811 66.4733L61.7904 84.8386H14.7231C12.07 84.2873 10.2782 83.2536 9.24455 82.53C8.86553 82.2543 8.38312 81.9098 7.79736 81.3585C5.93672 79.4978 5.35097 77.3271 5.10978 76.4657C4.86858 75.5009 4.42066 73.1923 5.14424 70.6426C6.10902 67.2658 8.62432 65.2329 9.27899 64.6816L9.31345 64.7161Z" fill="#B2872D"></path>
  <path d="M80.4972 66.2656C87.1576 66.2656 92.5569 60.928 92.5569 54.3438C92.5569 47.7595 87.1576 42.4219 80.4972 42.4219C73.8368 42.4219 68.4375 47.7595 68.4375 54.3438C68.4375 60.928 73.8368 66.2656 80.4972 66.2656Z" fill="#B2872D"></path>
  <path d="M14.8162 92.9376H148.748L163.943 82.9453L149.368 100.001H13.9893L0 82.9453L14.8162 92.9376Z" fill="#B2872D"></path>
</svg>
