<?xml version="1.0" encoding="UTF-8"?>
<svg xmlns="http://www.w3.org/2000/svg" width="103" height="102" viewBox="0 0 103 102" fill="none">
  <path d="M72.9875 44.916C57.5218 44.916 44.9453 57.4925 44.9453 72.9582C44.9453 88.4239 57.5218 101 72.9875 101C88.4529 101 101.029 88.4239 101.029 72.9582C101.029 57.4925 88.4529 44.916 72.9875 44.916Z" stroke="#B2872D" stroke-width="2" stroke-miterlimit="10"></path>
  <path d="M29.0422 57.0844C44.5079 57.0844 57.0844 44.5079 57.0844 29.0422C57.0844 13.5765 44.5079 1 29.0422 1C13.5765 1 1 13.5765 1 29.0422C1 44.5079 13.5765 57.0844 29.0422 57.0844Z" stroke="#B2872D" stroke-width="2" stroke-miterlimit="10"></path>
  <path d="M34.5808 94.9148C20.6107 94.9148 9.25781 83.5619 9.25781 69.5918" stroke="#B2872D" stroke-width="2" stroke-miterlimit="10"></path>
  <path d="M28.5938 98.4519L34.5761 94.9169L29.5115 90.1582" stroke="#B2872D" stroke-width="2" stroke-miterlimit="10"></path>
  <path d="M75.5703 6.74219C89.5408 6.74219 100.894 18.095 100.894 32.0652" stroke="#B2872D" stroke-width="2" stroke-miterlimit="10"></path>
  <path d="M81.4167 3.24414L75.5703 6.77916L80.499 11.5378" stroke="#B2872D" stroke-width="2" stroke-miterlimit="10"></path>
  <path d="M29.0458 47.3634C28.8759 47.3634 28.7059 47.2954 28.57 47.1594L10.419 27.8868C10.215 27.6488 10.1811 27.3429 10.351 27.071L17.2851 17.1118C17.2851 17.1118 17.591 16.8398 17.795 16.8398H40.2287C40.4327 16.8398 40.6366 16.9418 40.7386 17.1118L47.6727 27.071C47.8426 27.3089 47.8086 27.6488 47.6047 27.8868L29.4537 47.1594C29.4537 47.1594 29.1818 47.3634 28.9779 47.3634H29.0458ZM11.7106 27.3769L29.0458 45.7998L46.381 27.3769L39.9568 18.1315H18.2028L11.7786 27.3769H11.7106Z" fill="#B2872D"></path>
  <path d="M29.0529 47.3623C29.0529 47.3623 28.713 47.2944 28.577 47.1584L10.4261 27.8857C10.2561 27.7158 10.1881 27.4439 10.2901 27.2059C10.3921 26.968 10.63 26.832 10.8679 26.832H21.609C21.8809 26.832 22.1188 27.002 22.2208 27.2399L29.6307 46.5126C29.7327 46.7845 29.6307 47.1244 29.3588 47.2944C29.2568 47.3623 29.1209 47.3963 29.0189 47.3963L29.0529 47.3623ZM12.3635 28.0557L27.2854 43.8953L21.2011 28.0557H12.3635Z" fill="#B2872D"></path>
  <path d="M47.2085 28.0567H10.9066C10.6686 28.0567 10.4647 27.9208 10.3287 27.7168C10.1928 27.5129 10.2268 27.241 10.3627 27.071L17.2968 17.1118C17.2968 17.1118 17.6027 16.8398 17.8067 16.8398H40.2404C40.4444 16.8398 40.6483 16.9418 40.7503 17.1118L47.6844 27.071C47.8203 27.2749 47.8203 27.5129 47.7184 27.7168C47.5824 27.9208 47.3785 28.0567 47.1405 28.0567H47.2085ZM12.1302 26.7991H45.9848L39.9345 18.1315H18.1806L12.1302 26.7991Z" fill="#B2872D"></path>
  <path opacity="0.5" d="M21.6476 28.0573H10.9066C10.6686 28.0573 10.4647 27.9214 10.3287 27.7174C10.1928 27.5135 10.2268 27.2415 10.3627 27.0716L17.2968 17.1123C17.4328 16.9084 17.6707 16.8064 17.9086 16.8404C18.1466 16.8404 18.3505 17.0104 18.4185 17.2483L22.2254 27.2075C22.2934 27.4115 22.2594 27.6154 22.1575 27.7854C22.0555 27.9553 21.8515 28.0573 21.6476 28.0573ZM12.1302 26.7997H20.7298L17.6707 18.8459L12.1302 26.7997Z" fill="#B2872D"></path>
  <path d="M29.0359 47.3626C28.764 47.3626 28.5261 47.1926 28.4241 46.9547L17.2072 17.7228C17.1393 17.5189 17.1732 17.3149 17.2752 17.145C17.3772 16.975 17.5811 16.873 17.7851 16.873H40.2188C40.4228 16.873 40.6267 16.975 40.7287 17.145C40.8647 17.3149 40.8647 17.5529 40.7967 17.7228L29.5798 46.9547C29.4778 47.1926 29.2399 47.3626 28.968 47.3626H29.0359ZM18.7368 18.1307L29.0359 44.9493L39.3351 18.1307H18.7708H18.7368Z" fill="#B2872D"></path>
  <path d="M36.4255 28.0575H21.6396C21.4017 28.0575 21.1638 27.9216 21.0618 27.7176C20.9598 27.5137 20.9598 27.2417 21.1298 27.0378L28.5397 17.0786C28.5397 17.0786 28.8456 16.8066 29.0496 16.8066C29.2535 16.8066 29.4575 16.9086 29.5594 17.0786L36.9694 27.0378C37.1053 27.2417 37.1393 27.4797 37.0373 27.7176C36.9354 27.9555 36.6974 28.0575 36.4595 28.0575H36.4255ZM22.9312 26.7999H35.2018L29.0836 18.5742L22.9652 26.7999H22.9312Z" fill="#B2872D"></path>
  <path d="M21.626 28.0559C21.626 28.0559 21.558 28.0559 21.524 28.0559C21.2861 28.0559 21.1161 27.886 21.0142 27.6481L17.2072 17.7228C17.1393 17.5189 17.1732 17.3149 17.2752 17.145C17.3772 16.975 17.5811 16.873 17.7851 16.873H29.002C29.2399 16.873 29.4778 17.009 29.5798 17.2129C29.6818 17.4169 29.6818 17.6888 29.5118 17.8928L22.1019 27.852C22.1019 27.852 21.796 28.1239 21.592 28.1239L21.626 28.0559ZM18.7368 18.1307L21.796 26.1185L27.7443 18.1307H18.7368Z" fill="#B2872D"></path>
  <path opacity="0.5" d="M29.0493 47.3623C28.7774 47.3623 28.5395 47.1924 28.4375 46.9545L21.0276 27.6818C20.9596 27.4779 20.9936 27.2739 21.0955 27.104C21.1975 26.934 21.4014 26.832 21.6054 26.832H36.3913C36.5952 26.832 36.7992 26.934 36.9011 27.104C37.0031 27.2739 37.0371 27.5118 36.9691 27.6818L29.5592 46.9545C29.4572 47.1924 29.2193 47.3623 28.9474 47.3623H29.0493ZM22.5571 28.0557L29.0153 44.915L35.4736 28.0557H22.5231H22.5571Z" fill="#B2872D"></path>
  <path d="M68.3282 68.9503C69.212 68.0665 69.212 66.6729 68.3282 65.7892C68.0223 65.4832 67.6484 65.2793 67.2066 65.1773V64.1916C67.2066 64.0216 67.3085 63.8517 67.4445 63.7837C68.2943 63.4438 68.7701 62.56 68.6002 61.6763C68.3962 60.6566 67.4105 59.9768 66.3568 60.1807C66.0509 60.2487 65.745 60.3847 65.507 60.5886C65.0312 60.9285 64.3513 62.3901 65.3031 62.4921C65.541 62.4921 65.7789 62.2881 65.7789 62.0162C65.7789 61.4724 66.2208 61.0305 66.7647 61.0305C67.3085 61.0305 67.7504 61.4724 67.7504 62.0162C67.7504 62.4241 67.5125 62.764 67.1386 62.934C66.6287 63.1379 66.3228 63.6478 66.3228 64.1916V65.1773C65.1331 65.4153 64.3513 66.6049 64.5893 67.7946C64.6912 68.2365 64.8952 68.6444 65.2351 68.9503C63.0597 71.4316 61.7001 74.5247 61.2582 77.7878C60.9183 80.2691 62.1759 82.7165 64.3513 83.9061C65.1331 84.382 65.9489 84.8579 66.3568 85.6057C66.4928 85.8436 66.7647 85.9116 67.0026 85.7756C67.0706 85.7416 67.1386 85.6736 67.1726 85.6057C67.6144 84.9598 68.2263 84.416 68.9401 84.0761C75.3983 80.643 71.0475 71.9754 68.3282 68.9503ZM66.7647 66.0611C67.4785 66.0611 68.0563 66.6729 68.0563 67.3867C68.0563 68.1005 67.4785 68.6784 66.7647 68.6784C66.0509 68.6784 65.473 68.0665 65.473 67.3527C65.473 66.6389 66.0509 66.0611 66.7647 66.0611ZM70.7076 81.2209C70.1977 82.0366 69.5179 82.6825 68.7021 83.1583C67.9883 83.5322 67.3425 84.0421 66.7647 84.6199C66.1868 84.0421 65.541 83.5662 64.8272 83.1583C62.9237 82.1386 61.87 80.0652 62.1419 77.9238C62.5498 74.7967 63.9095 71.8395 65.9829 69.4601C66.4588 69.6301 67.0026 69.6301 67.5125 69.4601C69.11 71.1597 72.917 77.4479 70.7076 81.2209Z" fill="#B2872D"></path>
  <path d="M67.1494 70.2415C66.9795 70.0375 66.6736 70.0375 66.5036 70.2075C66.5036 70.2075 66.5036 70.2075 66.4696 70.2415C64.6002 72.4509 63.4105 75.1361 63.0366 78.0253C62.8326 80.0308 63.7164 81.6283 65.5859 82.648C65.9938 82.818 66.3677 83.2939 66.8435 83.3958C67.3194 83.2939 67.6933 82.852 68.1012 82.648L68.3391 82.4781C73.1997 79.8948 69.1549 72.4509 67.2174 70.2415H67.1494ZM69.2229 80.3707C68.781 80.9825 68.2031 81.4924 67.5573 81.8663C67.3194 82.0022 67.0815 82.1722 66.8095 82.3421C66.4696 82.1042 66.1297 81.9002 65.7898 81.6963C64.3282 80.8125 63.7844 79.6909 63.9203 78.1273C64.2263 75.8839 65.042 73.7425 66.3337 71.907V73.9465C66.3337 74.1844 66.5376 74.3883 66.8095 74.3883C67.0475 74.3883 67.2514 74.1844 67.2514 73.9465V71.907C68.4071 73.6065 70.6505 77.7874 69.2229 80.3707Z" fill="#B2872D"></path>
  <path d="M84.7315 77.7817C84.2896 74.5186 82.93 71.4255 80.7546 68.9441C81.6384 68.0604 81.6384 66.6668 80.7546 65.783C80.4487 65.4771 80.0748 65.2732 79.6329 65.1712V64.1855C79.6329 64.0155 79.7349 63.8456 79.8709 63.7776C80.8566 63.4037 81.2985 62.282 80.9246 61.3302C80.5507 60.3445 79.429 59.9026 78.4773 60.2765C77.7635 60.5485 77.2876 61.2623 77.2876 62.044C77.2876 62.282 77.4915 62.5199 77.7635 62.4859C78.0014 62.4859 78.2053 62.282 78.2053 62.044C78.2053 61.5002 78.6472 61.0583 79.1911 61.0583C79.7349 61.0583 80.1768 61.5002 80.1768 62.044C80.1768 62.4519 79.9389 62.7918 79.565 62.9618C79.0551 63.1657 78.7492 63.6756 78.7492 64.2194V65.2052C77.5255 65.4771 76.7777 66.6668 77.0496 67.8904C77.1516 68.2983 77.3556 68.7062 77.6615 69.0121C75.826 70.9156 71.9851 77.7137 74.4664 81.7246C75.0442 82.6763 75.826 83.4241 76.7777 83.968C77.5595 84.4438 78.3753 84.9197 78.7832 85.6675C78.9191 85.9054 79.1911 85.9734 79.395 85.8374C79.463 85.8035 79.531 85.7355 79.565 85.6675C80.0068 85.0217 80.6187 84.4778 81.3325 84.1379C83.7798 82.7783 84.9694 80.5009 84.6975 77.8497L84.7315 77.7817ZM79.2251 66.0549C79.9389 66.0549 80.5167 66.6668 80.5167 67.3806C80.5167 68.0944 79.9389 68.6722 79.2251 68.6722C78.5113 68.6722 77.9334 68.0604 77.9334 67.3466C77.9334 66.6328 78.5113 66.0549 79.2251 66.0549ZM83.1679 81.2147C82.6581 82.0305 81.9783 82.6763 81.1625 83.1522C80.4487 83.5261 79.8029 84.0359 79.2251 84.6138C78.6472 84.0359 78.0014 83.5601 77.2876 83.1522C75.3841 82.1325 74.3304 80.0591 74.6023 77.9176C75.0102 74.7905 76.3698 71.8333 78.4433 69.454C78.9191 69.6579 79.463 69.6579 79.9728 69.454C82.0463 71.8333 83.4059 74.7905 83.8138 77.9176C83.9497 79.0733 83.7118 80.229 83.134 81.2147H83.1679Z" fill="#B2872D"></path>
  <path d="M79.5653 70.2415C79.3954 70.0375 79.0895 70.0375 78.9195 70.2075C78.9195 70.2075 78.9195 70.2075 78.8855 70.2415C76.914 72.4509 72.8692 79.8948 77.7638 82.4781C79.6333 83.6338 78.8515 83.6338 80.755 82.4781C85.6149 79.8948 81.5708 72.4509 79.6333 70.2415H79.5653ZM81.6727 80.3707C81.2309 80.9825 80.653 81.4924 80.0072 81.8663C79.7693 82.0022 79.4973 82.1722 79.2594 82.3421C78.9195 82.1042 78.5796 81.9002 78.2397 81.6963C76.7781 80.8125 76.2342 79.6909 76.3702 78.1273C76.6761 75.8839 77.4919 73.7425 78.7835 71.907V73.9465C78.7835 74.1844 78.9875 74.3883 79.2594 74.3883C79.4973 74.3883 79.7013 74.1844 79.7013 73.9465V71.907C80.8569 73.6065 83.1003 77.8214 81.6727 80.3707Z" fill="#B2872D"></path>
  <path d="M13.9609 53.1775C15.5245 51.7499 20.7931 47.3991 28.6109 47.2631C36.2588 47.1271 41.5613 51.172 43.2268 52.5316" stroke="#B2872D" stroke-width="2" stroke-miterlimit="10"></path>
</svg>
