<?xml version="1.0" encoding="UTF-8"?>
<svg xmlns="http://www.w3.org/2000/svg" width="120" height="100" viewBox="0 0 120 100" fill="none">
  <path d="M119.625 64.1067C119.625 64.1067 119.625 64.0581 119.625 64.0338C119.625 64.0338 119.625 63.9852 119.625 63.9609C119.625 63.9366 119.625 63.9122 119.625 63.8879C119.625 63.8636 119.625 63.8393 119.625 63.815C119.625 63.7907 119.625 63.7664 119.625 63.7421C119.625 63.7178 119.625 63.6935 119.6 63.6692C119.576 63.6449 119.6 63.6206 119.6 63.5963C119.6 63.572 119.6 63.5477 119.576 63.5234C119.576 63.5234 119.576 63.4991 119.552 63.4748C119.552 63.4505 119.527 63.4262 119.503 63.4019C119.503 63.4019 119.503 63.3776 119.503 63.3533L106.962 43.8857C105.553 41.6254 103.073 40.2401 100.4 40.2644H85.0885V37.591C85.0885 33.2891 81.8803 29.6435 77.6028 29.1089C79.0854 14.575 68.4888 1.62097 53.9793 0.13842C39.4455 -1.34413 26.4914 9.25244 25.0089 23.762C24.9117 24.6369 24.8631 25.5362 24.8631 26.4354C24.8631 27.3103 24.9116 28.1853 24.9846 29.0359H24.2311C19.5162 29.0359 15.7004 32.8517 15.7004 37.5667V45.6113H8.53073C7.72869 45.6113 7.07249 46.2675 7.07249 47.0695C7.07249 47.8716 7.72869 48.5278 8.53073 48.5278H15.7004V59.5132H11.8847C11.0826 59.5132 10.4264 60.1694 10.4264 60.9715C10.4264 61.7735 11.0826 62.4297 11.8847 62.4297H15.7004V64.9816H5.78436C4.98232 64.9816 4.32612 65.6378 4.32612 66.4399C4.32612 67.2419 4.98232 67.8981 5.78436 67.8981H15.7004V81.4112C15.7004 86.1262 19.5162 89.9419 24.2311 89.9419H25.179C26.5157 96.6984 33.0778 101.097 39.8343 99.7607C44.7924 98.7886 48.681 94.8999 49.6532 89.9419H88.807C90.1437 96.6984 96.7058 101.097 103.462 99.7607C108.42 98.7886 112.309 94.8999 113.281 89.9419H115.298C117.753 89.9419 119.746 87.949 119.746 85.4943V64.0824C119.746 64.0824 119.746 64.0581 119.746 64.0338L119.625 64.1067ZM100.279 43.2052C101.956 43.2052 103.511 44.0558 104.386 45.4898L115.469 62.6971H84.967V43.2052H100.279ZM51.1843 2.95769C64.1627 2.95769 74.7106 13.4813 74.7106 26.484C74.7106 39.4867 64.187 50.0103 51.1843 50.0103C38.1817 50.0103 27.658 39.4867 27.658 26.484C27.658 13.5056 38.1817 2.982 51.1843 2.95769ZM22.0924 65.0302H18.4954V62.4783H35.1437C35.9457 62.4783 36.6019 61.8221 36.6019 61.0201C36.6019 60.218 35.9457 59.5618 35.1437 59.5618H18.4954V48.5764H25.6651C26.4671 48.5764 27.1233 47.9202 27.1233 47.1182C27.1233 46.3161 26.4671 45.6599 25.6651 45.6599H18.4954V37.6153C18.4954 34.5044 21.023 32.001 24.1096 32.001H25.3248C28.3628 46.2675 42.4106 55.3815 56.7014 52.3435C66.8848 50.1805 74.8322 42.2087 77.0195 32.0496C79.8874 32.3656 82.0505 34.7717 82.0505 37.6396V70.207H18.4954V67.971H22.0924C22.8944 67.971 23.5506 67.3148 23.5506 66.5128C23.5506 65.7108 22.8944 65.0545 22.0924 65.0545V65.0302ZM37.3067 97.1602C32.0327 97.1602 27.7552 92.8827 27.7552 87.6087C27.7552 82.3347 32.0327 78.0572 37.3067 78.0572C42.5807 78.0572 46.8582 82.3347 46.8582 87.6087C46.8582 92.8827 42.5807 97.1602 37.3067 97.1602ZM49.7504 87.0983C49.4831 80.2203 43.6744 74.8734 36.7963 75.1407C30.3072 75.4081 25.1061 80.6091 24.8387 87.0983H24.1096C20.9987 87.0983 18.4954 84.5707 18.4954 81.4841V73.0992H82.0505V87.0983H49.7504ZM100.91 97.1602C95.6365 97.1602 91.3589 92.8827 91.3589 87.6087C91.3589 82.3347 95.6365 78.0572 100.91 78.0572C106.184 78.0572 110.462 82.3347 110.462 87.6087C110.462 92.8827 106.184 97.1602 100.91 97.1602ZM116.708 85.5672C116.708 86.4178 116.028 87.0983 115.177 87.0983H113.378C113.111 80.2203 107.302 74.8734 100.424 75.1407C93.9352 75.4081 88.7341 80.6091 88.4668 87.0983H84.9913V65.6378H116.732V85.5915L116.708 85.5672ZM38.765 87.5358V87.6816C38.765 88.4836 38.1087 89.1399 37.3067 89.1399C36.5047 89.1399 35.8485 88.4836 35.8485 87.6816V87.5358C35.8485 86.7338 36.5047 86.0775 37.3067 86.0775C38.1087 86.0775 38.765 86.7338 38.765 87.5358ZM102.369 87.5358V87.6816C102.369 88.4836 101.712 89.1399 100.91 89.1399C100.108 89.1399 99.4522 88.4836 99.4522 87.6816V87.5358C99.4522 86.7338 100.108 86.0775 100.91 86.0775C101.712 86.0775 102.369 86.7338 102.369 87.5358ZM11.35 55.9405H1.45825C0.656215 55.9405 0 55.2843 0 54.4823C0 53.6802 0.656215 53.024 1.45825 53.024H11.35C12.152 53.024 12.8082 53.6802 12.8082 54.4823C12.8082 55.2843 12.152 55.9405 11.35 55.9405ZM51.1843 47.9445C63.0447 47.9445 72.6448 38.3444 72.6448 26.484C72.6448 14.6236 63.0447 5.02354 51.1843 5.02354C39.3239 5.02354 29.7239 14.6236 29.7239 26.484C29.7239 38.3444 39.3483 47.9445 51.1843 47.9445ZM50.0177 7.96433C49.7504 8.23167 49.6046 8.59623 49.6046 8.9851V11.6828C49.6046 12.4849 50.2608 13.1411 51.0628 13.1411C51.8649 13.1411 52.5211 12.4849 52.5211 11.6828V8.9851C52.5211 8.59623 52.3752 8.23167 52.0836 7.94002C61.5136 8.4261 69.0721 15.8875 69.6797 25.2931C69.4124 25.0258 69.0478 24.8799 68.6589 24.8799H65.9612C65.1592 24.8799 64.503 25.5362 64.503 26.3382C64.503 27.1402 65.1592 27.7964 65.9612 27.7964H68.6589C69.0478 27.7964 69.4124 27.6506 69.704 27.359C69.2179 36.7889 61.7566 44.3475 52.3509 44.9551C52.6183 44.6878 52.7641 44.3232 52.7641 43.9343V41.2366C52.7641 40.4345 52.1079 39.7783 51.3059 39.7783C50.5038 39.7783 49.8476 40.4345 49.8476 41.2366V43.9343C49.8476 44.3232 49.9934 44.6877 50.2851 44.9794C40.8551 44.4933 33.2965 37.032 32.6889 27.6263C32.9563 27.8936 33.3209 28.0395 33.7097 28.0395H36.4075C37.2095 28.0395 37.8657 27.3833 37.8657 26.5812C37.8657 25.7792 37.2095 25.123 36.4075 25.123H33.7097C33.3209 25.123 32.9563 25.2688 32.6647 25.5605C33.1507 16.1305 40.6121 8.57193 50.0177 7.96433ZM57.5763 12.2661L58.2082 11.1725C58.5971 10.4676 59.4963 10.2246 60.2011 10.6378C60.906 11.0266 61.149 11.9259 60.7358 12.6307L60.1039 13.7244C59.6908 14.4292 58.7915 14.6479 58.111 14.2348C57.4305 13.8216 57.1874 12.9467 57.5763 12.2661ZM63.2878 19.3629C62.8746 18.6581 63.1176 17.7832 63.8224 17.37L64.9161 16.7381C65.6209 16.3249 66.4959 16.568 66.9091 17.2728C67.3222 17.9776 67.0792 18.8525 66.3744 19.2657L65.2807 19.8976C64.5759 20.3108 63.7009 20.0677 63.2878 19.3629ZM65.4022 32.876L66.4959 33.5079C67.2007 33.9211 67.4437 34.796 67.0306 35.5008C66.6174 36.2056 65.7425 36.4487 65.0376 36.0355L63.944 35.4036C63.2391 34.9904 62.9961 34.1155 63.4093 33.4107C63.8224 32.7059 64.6974 32.4628 65.4022 32.876ZM60.9303 40.2158C61.3434 40.9206 61.1004 41.7956 60.3956 42.2087C59.6907 42.6219 58.8158 42.3789 58.4026 41.674L57.7707 40.5804C57.3576 39.8755 57.6006 39.0006 58.2811 38.5874C58.9616 38.1743 59.8609 38.4173 60.2741 39.0978L60.9059 40.1915L60.9303 40.2158ZM44.7924 40.7019L44.1605 41.7956C43.7473 42.5004 42.8723 42.7434 42.1675 42.3303C41.4627 41.9171 41.2197 41.0421 41.6328 40.3373L42.2647 39.2436C42.6779 38.5388 43.5529 38.2958 44.2577 38.709C44.9625 39.1221 45.2055 39.9971 44.7924 40.7019ZM39.0809 33.6051C39.4941 34.3099 39.251 35.1849 38.5462 35.598L37.4526 36.2299C36.7477 36.6188 35.8485 36.3758 35.4596 35.6709C35.0708 34.9904 35.3138 34.1155 35.9943 33.7266L37.088 33.0947C37.7928 32.6815 38.6678 32.9246 39.0809 33.6294V33.6051ZM35.3381 17.4672C35.7513 16.7624 36.6262 16.5194 37.331 16.9325L38.4247 17.5644C39.1295 17.9533 39.3726 18.8525 38.9837 19.5574C38.5948 20.2622 37.6956 20.5052 36.9908 20.1164L35.8971 19.4844C35.1923 19.0713 34.9492 18.1963 35.3624 17.4915L35.3381 17.4672ZM41.4384 12.7522C41.0252 12.0474 41.2683 11.1725 41.9488 10.7593C42.6536 10.3461 43.5286 10.5892 43.9417 11.2697L44.5736 12.3634C44.9868 13.0682 44.7438 13.9431 44.0389 14.3563C43.3341 14.7695 42.4592 14.5264 42.046 13.8216L41.4141 12.7279L41.4384 12.7522ZM46.3721 26.5326C46.3721 25.7306 47.0283 25.0744 47.8304 25.0744H49.5317V15.4986C49.5317 14.6965 50.1879 14.0403 50.9899 14.0403C51.7919 14.0403 52.4481 14.6965 52.4481 15.4986V25.0744H60.5657C61.3677 25.0744 62.0239 25.7306 62.0239 26.5326C62.0239 27.3347 61.3677 27.9909 60.5657 27.9909H52.4481V29.9352C52.4481 30.7372 51.7919 31.3934 50.9899 31.3934C50.1879 31.3934 49.5317 30.7372 49.5317 29.9352V27.9909H47.8304C47.0283 27.9909 46.3721 27.3347 46.3721 26.5326Z" fill="#B2872D"></path>
</svg>
