<?xml version="1.0" encoding="UTF-8"?>
<svg xmlns="http://www.w3.org/2000/svg" width="108" height="100" viewBox="0 0 108 100" fill="none">
  <path d="M92.6895 56.2115L100.47 45.5304C106.893 39.0704 109.169 30.8119 106.893 22.3332C105.572 17.4148 102.819 12.7166 98.9286 8.82588C95.0386 4.9352 90.3771 2.18235 85.422 0.860987C76.9433 -1.4147 68.7581 0.860986 62.2981 7.21087C58.4074 8.97269 54.8471 11.3218 51.6905 14.1847C50.4426 12.9001 49.0845 11.5053 49.0478 11.4686L44.423 7.76145C39.2477 2.40258 32.8244 -0.0933334 25.9239 0.457235C19.831 0.971099 13.7747 3.83407 8.8563 8.56895C3.9746 13.3038 0.891403 19.25 0.157311 25.3429C-0.650189 32.2434 1.6622 38.7034 6.83754 44.0623C6.83754 44.0623 6.83755 44.099 6.87425 44.099L6.94768 44.1724C7.57165 44.7963 9.99415 47.2188 12.7103 50.0084L7.05779 55.6609C4.08472 58.634 4.08472 63.4423 7.05779 66.4153C8.48926 67.8468 10.3979 68.6543 12.4166 68.6543C13.0406 68.6543 13.6646 68.5809 14.2886 68.4341C13.2609 72.5083 15.7201 76.6192 19.7943 77.6836C21.0055 78.014 22.3269 77.9773 23.5381 77.6836C22.5104 81.7578 24.9696 85.9055 29.0438 86.9332C30.2551 87.2268 31.5397 87.2635 32.7877 86.9332C31.7599 91.0074 34.2191 95.1183 38.2933 96.1827C40.8994 96.8434 43.6522 96.0726 45.5241 94.2007L48.8276 90.8973C52.8284 94.9715 55.6913 97.761 55.728 97.7977C58.6644 100.734 63.436 100.734 66.3723 97.7977C67.8405 96.3295 68.648 94.3108 68.5746 92.2553C71.6578 94.531 75.9522 94.2374 78.6684 91.5212C80.3568 89.8328 81.0175 87.4103 80.6504 84.9878C84.3943 87.08 89.1292 85.7586 91.2213 82.0148C92.3959 79.9593 92.5427 77.4634 91.6251 75.2611C93.7907 75.7383 96.3233 75.5181 98.4147 73.4259C101.424 70.4161 101.424 65.4977 98.4147 62.4879L92.6528 56.2849L92.6895 56.2115ZM63.3259 9.08282C63.3259 9.08282 63.5828 8.93599 63.6562 8.86258C69.5656 2.95315 77.0901 0.824288 84.8714 2.91645C94.1577 5.41236 102.342 13.5975 104.838 22.8837C106.93 30.6651 104.838 38.1895 98.8919 44.099C98.8551 44.1357 98.8184 44.1724 98.7817 44.2091L91.1846 54.6332L66.8495 29.1969C66.5926 28.9033 66.1888 28.7932 65.8218 28.9033C64.7573 29.1602 55.2509 31.6928 54.4067 37.1251C54.113 39.0337 51.1767 41.86 46.3317 44.8698C45.4874 45.3836 44.3863 45.1267 43.8725 44.3192C43.6889 43.9888 43.5788 43.6218 43.6155 43.2548C44.056 36.2442 46.1848 25.8201 46.9556 24.0583C51.2868 14.2214 63.2157 9.15622 63.3259 9.11951V9.08282ZM12.49 66.5254C11.0219 66.5254 9.66381 65.9382 8.63608 64.9104C6.50722 62.7816 6.50722 59.3314 8.63608 57.1658L21.4827 44.3192C23.6115 42.1903 27.0618 42.1536 29.2273 44.3192C31.3562 46.4481 31.3929 49.8983 29.2273 52.0639L16.3807 64.9104C15.353 65.9382 13.9582 66.5254 12.5268 66.5254H12.49ZM17.8489 74.1967C15.72 72.0678 15.72 68.6176 17.8489 66.452L29.3741 54.9268C31.503 52.7979 34.9532 52.7979 37.1188 54.9268C39.2477 57.0557 39.2477 60.5059 37.1188 62.6715L25.5936 74.1967C23.4647 76.3256 20.0145 76.3256 17.8489 74.1967ZM30.9524 85.0245C27.9427 85.0245 25.4835 82.5653 25.4835 79.5556C25.4835 78.1241 26.0707 76.7293 27.0985 75.7016L37.5226 65.2775C39.6514 63.1486 43.1017 63.1486 45.2672 65.2775C47.3961 67.4063 47.3961 70.8566 45.2672 73.0221L34.8431 83.4462C33.8154 84.474 32.4206 85.0613 30.9891 85.0613L30.9524 85.0245ZM44.056 92.6591C41.9271 94.788 38.4769 94.8247 36.3113 92.6591C34.1458 90.4935 34.1458 87.08 36.3113 84.9144L45.7811 75.4446C47.9099 73.2791 51.3602 73.2791 53.5257 75.3712C55.6913 77.5001 55.6913 80.9503 53.5992 83.1159C53.5992 83.1159 53.5624 83.1526 53.5257 83.1893L44.056 92.6591ZM96.9472 71.8843C93.8274 75.0042 89.5696 72.1412 89.0558 71.7375L78.3747 61.0565C77.971 60.6527 77.2736 60.6527 76.8698 61.0565C76.4661 61.4602 76.4661 62.1209 76.8698 62.5614L88.4685 74.16C90.6708 76.3623 90.6708 79.9226 88.4685 82.1249C86.2662 84.3271 82.7059 84.3271 80.5036 82.1249L69.272 70.8566C68.8683 70.4528 68.1709 70.4161 67.7671 70.8566C67.3634 71.2603 67.3267 71.9577 67.7671 72.3615L76.3927 80.987C79.0354 83.7399 79.4025 87.704 77.2002 89.943C74.9979 92.1452 71.4376 92.1452 69.2353 89.943L60.2427 80.9136C59.8389 80.5099 59.1415 80.4732 58.7378 80.9136C58.334 81.3174 58.2973 82.0148 58.7378 82.4185L64.9041 88.5849C66.9963 90.677 67.033 94.0906 64.9041 96.2194C62.812 98.3116 59.3985 98.3483 57.2696 96.2194C57.2696 96.2194 54.4067 93.4299 50.3692 89.3557L55.0306 84.6942C58.0037 81.7211 58.0037 76.9128 55.0306 73.9398C53.5992 72.5083 51.6905 71.7008 49.6718 71.7008C49.268 71.7008 48.901 71.7008 48.4972 71.7742C49.9654 67.8468 47.9833 63.4423 44.056 61.9741C43.2118 61.6437 42.2942 61.4969 41.3765 61.4969C41.0095 61.4969 40.6425 61.4969 40.3121 61.5703C41.8537 57.6796 39.9818 53.2384 36.0911 51.6968C35.2102 51.3298 34.2559 51.1462 33.2648 51.1462C32.9345 51.1462 32.6409 51.1462 32.3105 51.2196C33.9989 47.3657 32.2004 42.8877 28.3831 41.236C25.5202 39.988 22.1801 40.612 19.9778 42.851L14.2886 48.5769C12.7103 46.9619 11.3155 45.5304 10.3979 44.5761C9.77391 43.9521 9.26004 43.4383 8.9297 43.0712C8.74618 42.8877 8.59938 42.7409 8.48926 42.6308C-2.04495 31.7295 2.10266 18.1121 10.3979 10.1105C14.9493 5.70599 20.5283 3.06327 26.1441 2.58611C32.4206 2.07224 38.2567 4.38462 42.9916 9.30303C42.9916 9.30303 43.065 9.37644 43.1017 9.37644L47.7264 13.0836C48.1669 13.5241 49.0111 14.405 50.2223 15.6529C48.0568 17.8552 46.3317 20.3878 45.047 23.1774C44.0927 25.3796 41.9638 36.0607 41.5234 43.1079C41.3765 45.2735 43.0283 47.1454 45.1938 47.2555C46.0013 47.2923 46.8455 47.1087 47.5429 46.6683C53.1587 43.1446 56.2052 40.0247 56.6089 37.4187C57.1228 34.2254 62.9955 31.9498 65.8585 31.1056L90.6341 57.019L96.984 63.8827C99.1855 66.085 99.1855 69.6453 96.984 71.8476L96.9472 71.8843Z" fill="#B2872D"></path>
</svg>
