<?xml version="1.0" encoding="UTF-8"?>
<svg xmlns="http://www.w3.org/2000/svg" width="102" height="102" viewBox="0 0 102 102" fill="none">
  <path d="M85.5655 51.0677V51.0002C85.5655 51.0002 85.5655 50.9664 85.5655 50.9327C85.5655 50.9327 85.5655 50.8989 85.5655 50.8652C85.5655 50.8652 85.5655 50.8314 85.5655 50.7976C85.5655 50.7976 85.5655 50.7639 85.5655 50.7301C85.5655 50.7301 85.5655 50.7301 85.5655 50.6964L75.1671 36.5843C75.1671 36.5843 75.1333 36.5505 75.0996 36.5167C75.0996 36.5167 75.0996 36.5167 75.0658 36.483C75.0658 36.483 75.0321 36.483 74.9983 36.483C74.9983 36.483 74.9983 36.483 74.9645 36.483C74.9308 36.483 74.897 36.483 74.8295 36.4492C74.7957 36.4492 74.7282 36.4492 74.6944 36.4492H27.6654C27.6316 36.4492 27.5641 36.4492 27.5303 36.4492C27.4966 36.4492 27.4628 36.4492 27.4291 36.483C27.4291 36.483 27.4291 36.483 27.3953 36.483C27.3953 36.483 27.3616 36.483 27.3278 36.483C27.3278 36.483 27.3278 36.483 27.294 36.5167C27.294 36.5167 27.2603 36.5505 27.2265 36.5843L16.8281 50.6964C16.8281 50.6964 16.8281 50.6963 16.8281 50.7301C16.8281 50.7301 16.8281 50.7639 16.8281 50.7976C16.8281 50.7976 16.8281 50.7976 16.8281 50.8652C16.8281 50.8652 16.8281 50.8989 16.8281 50.9327C16.8281 50.9327 16.8281 50.9664 16.8281 51.0002V51.0677V51.1353C16.8281 51.1353 16.8281 51.1352 16.8281 51.169V51.2365C16.8281 51.2365 16.8281 51.2365 16.8281 51.2703C16.8281 51.2703 16.8281 51.3378 16.8619 51.3378C16.8619 51.3378 16.8956 51.4053 16.9294 51.4053L50.8254 85.0988C50.8254 85.0988 50.8929 85.1663 50.9267 85.1663C50.9267 85.1663 50.9942 85.1663 51.028 85.2001H51.0955C51.1293 85.2001 51.163 85.2001 51.1968 85.2001C51.2306 85.2001 51.2643 85.2001 51.2981 85.2001H51.3656C51.3656 85.2001 51.4331 85.2001 51.4669 85.1663C51.4669 85.1663 51.5344 85.1325 51.5682 85.0988L85.4642 51.4053C85.4642 51.4053 85.4979 51.3378 85.5317 51.3378C85.5317 51.3378 85.5317 51.2703 85.5655 51.2703C85.5655 51.2703 85.5655 51.2703 85.5655 51.2365C85.5655 51.2365 85.5655 51.2028 85.5655 51.169C85.5655 51.169 85.5655 51.169 85.5655 51.1353V51.0677ZM73.1752 37.6646L64.2285 50.0211L52.5472 37.6646H73.1752ZM62.743 50.4263H39.2792L51.028 38.0022L62.7768 50.4263H62.743ZM49.4075 37.6646L37.7262 50.0211L28.7795 37.6646H49.4075ZM27.4628 38.1373L36.342 50.4263H18.4149L27.4628 38.1373ZM18.7525 51.7767H37.2535L49.2049 82.0265L18.7525 51.7767ZM50.9942 82.9381L38.6715 51.7767H63.2832L50.9605 82.9381H50.9942ZM52.8173 81.9928L64.7687 51.7429H83.2697L52.8173 81.9928ZM65.6465 50.4263L74.5256 38.1373L83.5736 50.4263H65.6465Z" fill="#B2872D"></path>
  <path d="M50.894 22.5362C51.2653 22.5362 51.5692 22.2324 51.5692 21.861V12.7455C51.5692 12.3742 51.2653 12.0703 50.894 12.0703C50.5226 12.0703 50.2188 12.3742 50.2188 12.7455V21.861C50.2188 22.2324 50.5226 22.5362 50.894 22.5362Z" fill="#B2872D"></path>
  <path d="M41.6048 23.7543C41.7061 24.0582 41.9762 24.227 42.2463 24.227C42.3138 24.227 42.3813 24.227 42.4488 24.227C42.8202 24.1257 42.989 23.7205 42.8877 23.3829L40.1869 14.808C40.0856 14.4366 39.6804 14.2675 39.3428 14.3688C38.9715 14.47 38.8027 14.8752 38.9039 15.2128L41.6048 23.7881V23.7543Z" fill="#B2872D"></path>
  <path d="M34.0891 28.9509C34.2241 29.1197 34.4267 29.221 34.6293 29.221C34.7643 29.221 34.8994 29.1873 35.0344 29.086C35.3382 28.8497 35.4058 28.4445 35.1694 28.1407L30.1053 21.1521C29.869 20.8483 29.4638 20.7808 29.16 21.0171C28.8561 21.2534 28.7886 21.6586 29.0249 21.9624L34.0891 28.9509Z" fill="#B2872D"></path>
  <path d="M59.1213 24.1916C59.1213 24.1916 59.2564 24.1916 59.3239 24.1916C59.6277 24.1916 59.864 24.0228 59.9653 23.7189L62.6662 15.1436C62.7675 14.7723 62.5649 14.4009 62.2273 14.2996C61.856 14.1983 61.4846 14.4009 61.3833 14.7385L58.6824 23.3138C58.5811 23.6852 58.7837 24.0565 59.1213 24.1578V24.1916Z" fill="#B2872D"></path>
  <path d="M66.544 29.0833C66.544 29.0833 66.814 29.2183 66.9491 29.2183C67.1517 29.2183 67.3542 29.117 67.4893 28.9482L72.5534 21.9597C72.7897 21.6559 72.7222 21.217 72.4184 21.0144C72.1145 20.8118 71.6756 20.8456 71.4731 21.1494L66.4089 28.138C66.2064 28.4418 66.2401 28.8807 66.544 29.0833Z" fill="#B2872D"></path>
  <path d="M101.005 51C101.005 72.6746 85.7107 87.0567 84.1239 88.4747C70.4507 100.595 54.6843 101 51.0044 101C46.5142 101 35.1705 100.392 23.8943 93.0324C10.1199 84.0182 0.768052 67.9143 1.00438 51C1.34199 26.4895 21.8349 1 51.0044 1C78.6209 1 101.005 23.3835 101.005 51Z" stroke="#B2872D" stroke-width="2" stroke-miterlimit="10"></path>
  <path d="M19.7812 89.7207C27.0061 87.5262 37.4382 85.2305 50.0986 85.2305C63.6705 85.2305 74.7441 87.9314 82.1715 90.3622" stroke="#B2872D" stroke-width="2" stroke-miterlimit="10"></path>
</svg>
